<?xml version="1.0" encoding="utf-8"?>
<!-- Svg Vector Icons : http://www.onlinewebfonts.com/icon -->
<!DOCTYPE svg PUBLIC "-//W3C//DTD SVG 1.1//EN" "http://www.w3.org/Graphics/SVG/1.1/DTD/svg11.dtd">
<svg version="1.1" xmlns="http://www.w3.org/2000/svg" xmlns:xlink="http://www.w3.org/1999/xlink" x="0px" y="0px" viewBox="0 0 1000 1000" enable-background="new 0 0 1000 1000" xml:space="preserve" fill="currentColor">
<metadata> Svg Vector Icons : http://www.onlinewebfonts.com/icon </metadata>
<g><path d="M428.4,232.1c0,39.8,32.3,72.1,72.1,72.1c39.8,0,72.1-32.3,72.1-72.1c0-39.8-32.3-72.1-72.1-72.1C460.7,159.9,428.4,192.2,428.4,232.1z"/><path d="M990,958.6l-97.9-414.8c-2.6-12.9-12.9-20.6-25.8-20.6h-170c-15.5,0-25.8,10.3-25.8,25.8c0,15.5,10.3,25.8,25.8,25.8h149.4l85,363.3H70.3l85-363.3h149.4c15.5,0,25.8-10.3,25.8-25.8c0-15.5-10.3-25.8-25.8-25.8h-170c-12.9,0-23.2,7.7-25.8,20.6L11,958.6c-2.6,7.7,0,15.5,5.2,23.2c5.2,5.2,12.9,7.7,20.6,7.7h927.5c7.7,0,15.5-2.6,20.6-10.3C990,974,990,966.3,990,958.6z"/><path d="M479.9,688.1c5.2,5.2,12.9,10.3,20.6,10.3c7.7,0,15.5-2.6,20.6-10.3l193.2-242.2C753,394.4,771,342.8,771,281c0-149.4-121.1-270.5-270.5-270.5C351.1,10.5,230,131.6,230,281c0,61.8,18,113.4,59.3,167.5L479.9,688.1z M500.5,62c121.1,0,219,97.9,219,219c0,51.5-12.9,90.2-46.4,134L500.5,628.8L330.5,415c-33.5-43.8-48.9-87.6-48.9-136.5C281.5,159.9,379.4,62,500.5,62z"/><path d="M230,816.9c0,15.5,10.3,25.8,25.8,25.8h486.9c15.5,0,25.8-10.3,25.8-25.8s-10.3-25.8-25.8-25.8H255.8C242.9,791.1,230,804,230,816.9z"/></g>
</svg>