<svg xmlns="http://www.w3.org/2000/svg" viewBox="0 0 408.75 316.43" fill="currentColor"><path  d="M0,72.8c2-2.66,1.53-6,2.28-9C12.48,23.29,49.1-3.07,90.75.29c37.41,3,69.77,33.6,74.49,70.67,3.95,31-6.28,56.64-30.14,76.83l-2.87,2.42H396.9c9.53,0,11.79,2.25,11.79,11.72q0,38.5,0,77c0,5.13-2.06,8.41-5.75,9.4-5.35,1.43-10-2.16-10.2-8.06-.16-5.18,0-10.37,0-15.56,0-18.35-.06-36.71.06-55.06,0-2.73-.56-3.55-3.43-3.53q-28.72.21-57.46,0c-2.51,0-3.34.52-3.33,3.22q.13,63.84,0,127.68c0,2.95.94,3.39,3.59,3.38,19-.12,38-.15,57.06,0,3.17,0,3.65-1,3.59-3.79-.11-5.9,3-9.34,8-9.29s7.85,3.52,7.92,9.46c0,3.59.09,7.18,0,10.77-.16,5.6-3.12,8.54-8.67,8.77-.8,0-1.6,0-2.39,0q-156,0-312,.05c-23,0-43-7.23-59.71-23.06A80.92,80.92,0,0,1,1.43,248.3c-.29-1.58.1-3.46-1.43-4.69Zm16.24,59.53c-.14,1.24-.23,1.61-.23,2,0,32.85-.08,65.7,0,98.55A66.19,66.19,0,0,0,29.19,273,61,61,0,0,0,48.53,290.5c.06-.76.09-1.16.12-1.55.51-5.29,3.74-8.66,8.16-8.52s7.65,3.68,7.84,8.88a33.52,33.52,0,0,1,0,5.58c-.34,2.42.77,3.14,2.9,3.63,7.45,1.74,15,1.89,22.59,1.89,2,0,2.45-.71,2.42-2.55-.1-5.72,0-11.44,0-17.16a12,12,0,0,1,.64-4.71,7.88,7.88,0,0,1,8.34-4.72c4.17.6,6.86,3.57,7,8.32.18,6,.14,12,0,18,0,2.23.56,2.94,2.85,2.88,5.85-.16,11.7-.05,17.55-.05,6.91,0,6.91,0,7.49-6.66a11.72,11.72,0,0,1,.15-1.19,7.83,7.83,0,0,1,15.32-.83,13.3,13.3,0,0,1,.48,5.52c-.36,2.74.82,3.27,3.31,3.21,6.78-.16,13.57-.23,20.35,0,3.21.12,4.36-.61,4.22-4.05-.24-6.1,0-12.23.16-18.34.11-3.27,2.17-5.39,5.1-6.44a7.59,7.59,0,0,1,8.12,1.72c2.19,2.05,2.57,4.84,2.58,7.69,0,5.58.09,11.17,0,16.75-.05,2.13.64,2.69,2.7,2.64,5.85-.13,11.7,0,17.55-.06,2.37,0,5.2.57,7-.51,1.51-.92.23-3.95.58-6,.12-.66.23-1.31.38-2a7.75,7.75,0,0,1,7.85-6,7.6,7.6,0,0,1,7.34,6.13,27.53,27.53,0,0,1,.38,5.95c-.07,1.89.52,2.52,2.47,2.49,7.58-.1,15.16-.13,22.74,0,2.21,0,2.62-.76,2.58-2.74-.11-5.85-.15-11.71,0-17.56.14-5.45,3.48-9.05,8-9.06s7.83,3.56,7.93,9.08c.1,5.72.15,11.44,0,17.15-.08,2.46.62,3.19,3.1,3.13q11.56-.23,23.14,0c2.39.05,2.79-.83,2.79-3q-.09-64.24,0-128.48c0-2.34-.72-2.85-2.92-2.82-7.71.13-15.43.18-23.14,0-2.66-.06-3,1-3,3.24.14,5.45.07,10.91,0,16.36,0,1.84.08,3.72-.9,5.43-1.83,3.2-4.55,4.82-8.23,4.25-4.17-.65-6.67-3.66-6.84-8.51-.19-5.85-.14-11.71,0-17.56.05-2.24-.26-3.22-2.93-3.21q-32.92.19-65.84,0c-2.4,0-2.84.8-2.78,3,.15,5.18.09,10.37,0,15.55a23.45,23.45,0,0,1-.48,4.74,8,8,0,0,1-7.72,6.23c-3.74-.09-7.3-3-7.52-6.89-.35-6.49-.36-13-.24-19.53,0-2.52-.74-3.07-3.15-3.06q-32.72.14-65.44,0c-2.37,0-3.22.44-3.12,3,.21,5.85.18,11.71,0,17.55-.13,5.35-3.71,9.07-8.25,8.92s-7.62-3.72-7.72-8.94c-.09-4.12,0-8.24,0-12.37,0-8.08,0-8.09-7.92-8.12-16.16-.06-31.23-3.92-45-12.51A88.34,88.34,0,0,1,16.24,132.33Zm133.92-49A67.07,67.07,0,0,0,16,82.87c-.19,36.71,29.83,67,66.69,67.33S150,120.38,150.16,83.31Z"/><path  d="M360.67,254.87a21.58,21.58,0,1,1,.09-43.16,21.58,21.58,0,0,1-.09,43.16Zm5.52-21.44a5.83,5.83,0,0,0-5.58-5.68,5.66,5.66,0,0,0-5.46,5.28,5.47,5.47,0,0,0,5.26,5.82A5.71,5.71,0,0,0,366.19,233.43Z"/><path  d="M392.7,268c0-.93,0-1.86,0-2.79.27-5,3.39-8.25,7.86-8.32s7.76,3.18,8.09,8.1a51.92,51.92,0,0,1,0,5.58c-.23,5.18-3.49,8.59-8.08,8.53s-7.7-3.45-7.9-8.71C392.67,269.6,392.7,268.8,392.7,268Z"/><path  d="M80,120c-16-.31-31.77-14.56-33.56-32.67C44.52,67.92,56.89,50.75,75.84,46.83a36.09,36.09,0,0,1,16.59.42c5.07,1.34,7.83,5.06,6.88,9.51-1,4.77-5,7.15-10.31,6.14-10.63-2-18.93,1.26-23.77,9.39a20.93,20.93,0,0,0,27,29.67c8.71-4.28,13.21-13.38,11.46-23.23-.14-.78-.43-1.53-.56-2.32-.79-4.77,1.67-8.79,6-9.8,4.06-1,8.07,1.52,9.54,5.89,5,14.87-2.26,33.81-16,41.93C96.49,118.11,89.88,120.11,80,120Z"/>
</svg>